<?xml version="1.0" encoding="iso-8859-1"?>
<svg xmlns="http://www.w3.org/2000/svg" width="800" height="600" version="1.1" xml:space="preserve"
    xmlns:xlink="http://www.w3.org/1999/xlink">
    
    <defs>
        <animate xlink:href="#curseur" attributeName="x" attributeType="XML" from="10" to="780" begin="play.click" dur="10s" />
        <animate xlink:href="#curseur" attributeName="x" attributeType="XML" from="curseur.1" to="0" begin="area1.click" dur="1s" />
        <animate xlink:href="#curseur" attributeName="x" attributeType="XML" from="curseur" to="190" begin="area2.click" dur="1s" />
        <animate xlink:href="#curseur" attributeName="x" attributeType="XML" from="curseur" to="390" begin="area3.click" dur="1s" />
        <animate xlink:href="#curseur" attributeName="x" attributeType="XML" from="curseur" to="585" begin="area4.click" dur="1s" />
    </defs>
    
    //Border of the application
    <rect id="border" x="0" y="0" width="800" height="580" style="fill:white; stroke:black;"/>
    <!--Curseur de depacement-->
    <rect id="curseur" x="10" y="20" width="2" height="70" style="fill:red;" />
    //Bouton play
    <rect id="play" x="30" y="130" width="70" height="50" style="fill:green"/>

    //area to move the curseur
    <rect id="area1" x="20" y="30" width="195" height="80" style="fill:none"/>
    <rect id="area2" x="195" y="30" width="195" height="80" style="fill:none"/>
    <rect id="area3" x="390" y="30" width="195" height="80" style="fill:none"/>
    <rect id="area4" x="585" y="30" width="195" height="80" style="fill:none"/>
    //mesure
    <line id="mesure1" x1="20" y1="30" x2="20" y2="80" style="stroke:black;"/>
    <line id="mesure1" x1="195" y1="30" x2="195" y2="80" style="stroke:black;"/>
    <line id="mesure2" x1="390" y1="30" x2="390" y2="80" style="stroke:black;"/>
    <line id="mesure3" x1="585" y1="30" x2="585" y2="80" style="stroke:black;"/>
    <line id="mesure4" x1="780" y1="30" x2="780" y2="80" style="stroke:black;"/>
    <!--Ligne de partition -->
    <line id="1" x1="20" y1="30" x2="780" y2="30" style="stroke:black;"/>
    <line id="2" x1="20" y1="40" x2="780" y2="40" style="stroke:black;"/>
    <line id="3" x1="20" y1="50" x2="780" y2="50" style="stroke:black;"/>
    <line id="4" x1="20" y1="60" x2="780" y2="60" style="stroke:black;"/>
    <line id="5" x1="20" y1="70" x2="780" y2="70" style="stroke:black;"/>
    <line id="6" x1="20" y1="80" x2="780" y2="80" style="stroke:black;"/>
    
</svg>
