<?xml version="1.0" encoding="iso-8859-1"?>
<svg xmlns="http://www.w3.org/2000/svg" width="800" height="600" version="1.1" xml:space="preserve"
    xmlns:xlink="http://www.w3.org/1999/xlink">
    
    <defs>
        <animate xlink:href="#curseur" attributeName="x" attributeType="XML" to="780" begin="play.click" dur="10s" fill="freeze" />
        <animate xlink:href="#curseur" attributeName="x" attributeType="XML" from="20" to="20" begin="area1.click" dur="1s" fill="freeze" />
        <animate xlink:href="#curseur" attributeName="x" attributeType="XML" from="210" to="210" begin="area2.click" dur="1s" fill="freeze" />
        <animate xlink:href="#curseur" attributeName="x" attributeType="XML" from="400" to="400" begin="area3.click" dur="1s" fill="freeze"/>
        <animate xlink:href="#curseur" attributeName="x" attributeType="XML" from="590" to="590" begin="area4.click" dur="1s" fill="freeze"/>
    </defs>
    
    //Border of the application
    <rect id="border" x="0" y="0" width="800" height="580" style="fill:white; stroke:black;"/>
    //area to move the curseur
    <rect id="area1" x="20" y="30" width="190" height="50" style="fill:white;stroke:black"/>
    <rect id="area2" x="210" y="30" width="190" height="50" style="fill:white;stroke:black;"/>
    <rect id="area3" x="400" y="30" width="190" height="50" style="fill:white;stroke:black"/>
    <rect id="area4" x="590" y="30" width="190" height="50" style="fill:white; stroke:black"/>
    
    <rect id="area1" x="20" y="110" width="190" height="50" style="fill:white;stroke:black"/>
    <rect id="area2" x="210" y="110" width="190" height="50" style="fill:white;stroke:black;"/>
    <rect id="area3" x="400" y="110" width="190" height="50" style="fill:white;stroke:black"/>
    <rect id="area4" x="590" y="110" width="190" height="50" style="fill:white; stroke:black"/>
    
    <rect id="area1" x="20" y="190" width="190" height="50" style="fill:white;stroke:black"/>
    <rect id="area2" x="210" y="190" width="190" height="50" style="fill:white;stroke:black;"/>
    <rect id="area3" x="400" y="190" width="190" height="50" style="fill:white;stroke:black"/>
    <rect id="area4" x="590" y="190" width="190" height="50" style="fill:white; stroke:black"/>
    
    <!--Curseur de depacement-->
    <rect id="curseur" x="10" y="20" width="2" height="70" style="fill:red;" />
    <rect id="curseur" x="10" y="100" width="2" height="70" style="fill:red;" >
        
    </rect>
    <rect id="curseur" x="10" y="180" width="2" height="70" style="fill:red;">
    </rect>
    
    //Bouton play
    <rect id="play" x="30" y="300" width="70" height="50" style="stroke:green"/>

    
    
    //mesure
   <!-- <line id="mesure1" x1="20" y1="30" x2="20" y2="80" style="stroke:black;"/>
    <line id="mesure1" x1="210" y1="30" x2="210" y2="80" style="stroke:black;"/>
    <line id="mesure2" x1="400" y1="30" x2="400" y2="80" style="stroke:black;"/>
    <line id="mesure3" x1="590" y1="30" x2="590" y2="80" style="stroke:black;"/>
    <line id="mesure4" x1="780" y1="30" x2="780" y2="80" style="stroke:black;"/>-->
    <!--Ligne de partition -->
    <line id="1" x1="20" y1="30" x2="780" y2="30" style="stroke:black;"/>
    <line id="2" x1="20" y1="40" x2="780" y2="40" style="stroke:black;"/>
    <line id="3" x1="20" y1="50" x2="780" y2="50" style="stroke:black;"/>
    <line id="4" x1="20" y1="60" x2="780" y2="60" style="stroke:black;"/>
    <line id="5" x1="20" y1="70" x2="780" y2="70" style="stroke:black;"/>
    <line id="6" x1="20" y1="80" x2="780" y2="80" style="stroke:black;"/>
    
    
    <line id="1" x1="20" y1="110" x2="780" y2="110" style="stroke:black;"/>
    <line id="2" x1="20" y1="120" x2="780" y2="120" style="stroke:black;"/>
    <line id="3" x1="20" y1="130" x2="780" y2="130" style="stroke:black;"/>
    <line id="4" x1="20" y1="140" x2="780" y2="140" style="stroke:black;"/>
    <line id="5" x1="20" y1="150" x2="780" y2="150" style="stroke:black;"/>
    <line id="6" x1="20" y1="160" x2="780" y2="160" style="stroke:black;"/>
    
    <line id="1" x1="20" y1="190" x2="780" y2="190" style="stroke:black;"/>
    <line id="2" x1="20" y1="200" x2="780" y2="200" style="stroke:black;"/>
    <line id="3" x1="20" y1="210" x2="780" y2="210" style="stroke:black;"/>
    <line id="4" x1="20" y1="220" x2="780" y2="220" style="stroke:black;"/>
    <line id="5" x1="20" y1="230" x2="780" y2="230" style="stroke:black;"/>
    <line id="6" x1="20" y1="240" x2="780" y2="240" style="stroke:black;"/>
</svg>
